<svg xmlns="http://www.w3.org/2000/svg" xmlns:xlink="http://www.w3.org/1999/xlink" viewBox="0 0 367.13 402.6"><defs><linearGradient id="a" x1="366.06" y1="29" x2="19.07" y2="391.31" gradientUnits="userSpaceOnUse"><stop offset="0" stop-color="#3ec260"/><stop offset="0.27" stop-color="#3dbf5f"/><stop offset="0.45" stop-color="#3ab65a"/><stop offset="0.61" stop-color="#36a753"/><stop offset="0.75" stop-color="#2f9248"/><stop offset="0.88" stop-color="#27773b"/><stop offset="1" stop-color="#1c552b"/><stop offset="1" stop-color="#1c542a"/></linearGradient><linearGradient id="b" x1="418" y1="78.76" x2="71.02" y2="441.06" xlink:href="#a"/><linearGradient id="c" x1="326" y1="-9.34" x2="-20.97" y2="352.95" xlink:href="#a"/><linearGradient id="d" x1="-88.1" y1="68.9" x2="291.58" y2="410.77" gradientUnits="userSpaceOnUse"><stop offset="0" stop-color="#ed2635"/><stop offset="0.17" stop-color="#e82534"/><stop offset="0.37" stop-color="#db2330"/><stop offset="0.58" stop-color="#c4202a"/><stop offset="0.8" stop-color="#a41b22"/><stop offset="1" stop-color="#7f1519"/></linearGradient><linearGradient id="e" x1="-40.6" y1="18.18" x2="339.04" y2="360" xlink:href="#d"/><linearGradient id="f" x1="278.67" y1="133.63" x2="-16.44" y2="418.53" gradientUnits="userSpaceOnUse"><stop offset="0" stop-color="#fff"/><stop offset="0.09" stop-color="#f9f9f9"/><stop offset="0.22" stop-color="#e7e7e7"/><stop offset="0.36" stop-color="#c9c9c9"/><stop offset="0.53" stop-color="#a0a0a0"/><stop offset="0.7" stop-color="#6c6c6c"/><stop offset="0.88" stop-color="#2d2d2d"/><stop offset="1"/></linearGradient><linearGradient id="g" x1="328.05" y1="182.23" x2="36.38" y2="463.81" xlink:href="#f"/><linearGradient id="h" x1="281.3" y1="43.43" x2="-13.32" y2="327.85" xlink:href="#f"/><linearGradient id="i" x1="24.78" y1="377.81" x2="373.03" y2="41.81" gradientUnits="userSpaceOnUse"><stop offset="0" stop-color="#fff"/><stop offset="0.17" stop-color="#fcfcfc"/><stop offset="0.3" stop-color="#f2f2f2"/><stop offset="0.42" stop-color="#e2e2e2"/><stop offset="0.53" stop-color="#cbcbcb"/><stop offset="0.64" stop-color="#adadad"/><stop offset="0.74" stop-color="#888"/><stop offset="0.84" stop-color="#5c5c5c"/><stop offset="0.93" stop-color="#2b2b2b"/><stop offset="1"/></linearGradient><linearGradient id="j" x1="94.63" y1="427.17" x2="413.57" y2="119.45" xlink:href="#i"/><linearGradient id="k" x1="-29.1" y1="321.96" x2="319.16" y2="-14.04" xlink:href="#i"/><linearGradient id="l" x1="265.46" y1="393.46" x2="-28.57" y2="89.29" gradientUnits="userSpaceOnUse"><stop offset="0" stop-color="#fff"/><stop offset="0.12" stop-color="#fbfbfb"/><stop offset="0.25" stop-color="#efefef"/><stop offset="0.37" stop-color="#dadada"/><stop offset="0.5" stop-color="#bdbdbd"/><stop offset="0.63" stop-color="#989898"/><stop offset="0.76" stop-color="#6a6a6a"/><stop offset="0.89" stop-color="#363636"/><stop offset="1"/></linearGradient><linearGradient id="m" x1="322.68" y1="349" x2="26.52" y2="42.62" gradientUnits="userSpaceOnUse"><stop offset="0" stop-color="#fff"/><stop offset="0.16" stop-color="#fcfcfc"/><stop offset="0.29" stop-color="#f2f2f2"/><stop offset="0.41" stop-color="#e1e1e1"/><stop offset="0.53" stop-color="#c9c9c9"/><stop offset="0.63" stop-color="#aaa"/><stop offset="0.74" stop-color="#848484"/><stop offset="0.84" stop-color="#585858"/><stop offset="0.94" stop-color="#252525"/><stop offset="1"/></linearGradient><linearGradient id="n" x1="-26.18" y1="111.66" x2="298.13" y2="456.28" gradientUnits="userSpaceOnUse"><stop offset="0" stop-color="#fff"/><stop offset="0.37" stop-color="#fdfdfd"/><stop offset="0.51" stop-color="#f6f6f6"/><stop offset="0.6" stop-color="#ebebeb"/><stop offset="0.68" stop-color="#dadada"/><stop offset="0.75" stop-color="#c4c4c4"/><stop offset="0.8" stop-color="#a8a8a8"/><stop offset="0.86" stop-color="#888"/><stop offset="0.91" stop-color="#626262"/><stop offset="0.95" stop-color="#373737"/><stop offset="0.99" stop-color="#090909"/><stop offset="1"/></linearGradient><linearGradient id="o" x1="26.62" y1="59.85" x2="355.39" y2="407.75" xlink:href="#n"/><linearGradient id="p" x1="79.04" y1="203.99" x2="141.98" y2="138.93" gradientUnits="userSpaceOnUse"><stop offset="0.31" stop-color="#fff"/><stop offset="0.43" stop-color="#fcfcfc"/><stop offset="0.51" stop-color="#f2f2f2"/><stop offset="0.6" stop-color="#e1e1e1"/><stop offset="0.67" stop-color="#c9c9c9"/><stop offset="0.75" stop-color="#aaa"/><stop offset="0.82" stop-color="#848484"/><stop offset="0.89" stop-color="#575757"/><stop offset="0.96" stop-color="#242424"/><stop offset="1"/></linearGradient><linearGradient id="q" x1="84.22" y1="387.58" x2="152.18" y2="317.33" gradientUnits="userSpaceOnUse"><stop offset="0.49" stop-color="#fff"/><stop offset="0.53" stop-color="#f1f1f1"/><stop offset="0.62" stop-color="#cbcbcb"/><stop offset="0.75" stop-color="#8f8f8f"/><stop offset="0.9" stop-color="#3c3c3c"/><stop offset="1"/></linearGradient><linearGradient id="r" x1="19.63" y1="126.31" x2="89.97" y2="196.66" gradientUnits="userSpaceOnUse"><stop offset="0.54" stop-color="#fff"/><stop offset="0.58" stop-color="#f1f1f1"/><stop offset="0.66" stop-color="#cbcbcb"/><stop offset="0.77" stop-color="#8f8f8f"/><stop offset="0.91" stop-color="#3c3c3c"/><stop offset="1"/></linearGradient><linearGradient id="s" x1="203.77" y1="302.21" x2="220.39" y2="285.02" gradientUnits="userSpaceOnUse"><stop offset="0.26"/><stop offset="1" stop-color="#fff"/></linearGradient><linearGradient id="t" x1="168.22" y1="288.95" x2="100" y2="220.73" gradientUnits="userSpaceOnUse"><stop offset="0" stop-color="#fff"/><stop offset="0.22" stop-color="#fcfcfc"/><stop offset="0.35" stop-color="#f4f4f4"/><stop offset="0.47" stop-color="#e5e5e5"/><stop offset="0.57" stop-color="#d1d1d1"/><stop offset="0.66" stop-color="#b6b6b6"/><stop offset="0.75" stop-color="#959595"/><stop offset="0.83" stop-color="#6e6e6e"/><stop offset="0.91" stop-color="#414141"/><stop offset="0.98" stop-color="#0f0f0f"/><stop offset="1"/></linearGradient><linearGradient id="u" x1="184.98" y1="137.86" x2="243.86" y2="77" gradientUnits="userSpaceOnUse"><stop offset="0.21"/><stop offset="0.24" stop-color="#0c0c0c"/><stop offset="0.46" stop-color="#616161"/><stop offset="0.65" stop-color="#a5a5a5"/><stop offset="0.81" stop-color="#d6d6d6"/><stop offset="0.93" stop-color="#f4f4f4"/><stop offset="1" stop-color="#fff"/></linearGradient></defs><title>CL_SVG</title><g style="isolation:isolate"><path d="M181.2,352.23l.05.06-.1.11-10.73,10.72c-.87.87-1.75,1.72-2.65,2.54a89.15,89.15,0,0,1-37,20.54A90.2,90.2,0,0,1,53,371.64c-.29-.21-.58-.44-.86-.66a89.11,89.11,0,0,1-9.61-8.5C7.82,327.11,8.92,270.05,44,235L54,225l21.05-21L96.3,182.7l.1-.11,42.43-42.43h0l42.41,42.42-.1.11h0L85.57,278.26a30,30,0,0,0,.62,43,27.82,27.82,0,0,0,2.74,2.28l.17.13c11.91,9.48,29.42,8.24,40.38-2.72l10.14-10.12-.89-.89.11-.11Z" transform="translate(-16.43 -23.7)" style="fill:url(#a)"/><path d="M234.06,299.48l-10.38,10.38-8.15-8.15-18.9-18.9-.76-.76a59.71,59.71,0,0,1,32.75,12.61,2,2,0,0,1,.24.19A59.38,59.38,0,0,1,234.06,299.48Z" transform="translate(-16.43 -23.7)" style="fill:url(#b)"/><path d="M264.73,96.3a60,60,0,0,1-9.45,12.25L223.7,140.13l0,0L181.25,97.73l74-74q.45.45.87.9a.8.8,0,0,1,.13.13A60,60,0,0,1,264.73,96.3Z" transform="translate(-16.43 -23.7)" style="fill:url(#c)"/><path d="M256.28,425.27c-.33.35-.66.69-1,1l-74-74-.05-.06-42.36-42.37-.19-.19L97.29,268.32l-.89-.89L138.82,225l.89.89,41.41,41.41,7.46,7.45,8,8.05,18.9,18.9,8.15,8.15,7.33,7.33,24.27,24.27A60.77,60.77,0,0,1,259.4,346a1,1,0,0,0,.08.11A60,60,0,0,1,256.28,425.27Z" transform="translate(-16.43 -23.7)" style="fill:url(#d)"/><path d="M383.56,300l-.11.1a1.14,1.14,0,0,1-.11.11A60,60,0,0,1,298.7,300l-24.27-24.27-34.2-34.2-58-58-57.8-57.8c-10.85-10.86-29.21-10.18-40.91,1.52-.37.37-.72.74-1.06,1.12a30.89,30.89,0,0,0-8.18,20.85q0,.6,0,1.2A26.58,26.58,0,0,0,82,168.21L96.4,182.59l.89.89.11.11L55,226l-1-1-2.49-2.49L39.61,210.64a76.88,76.88,0,0,1-6.42-7.28.39.39,0,0,1-.08-.1A77.56,77.56,0,0,1,21.78,183a78.58,78.58,0,0,1-2.63-8.22,84.25,84.25,0,0,1-2.7-19.39c0-1.31,0-2.63,0-3.95A93.15,93.15,0,0,1,44.14,87.9c35.1-35.1,90.15-37.13,122.74-4.54Z" transform="translate(-16.43 -23.7)" style="fill:url(#e)"/><g style="mix-blend-mode:multiply"><path d="M181.13,182.7,138.82,225l.89.89-.1.1-21.22,21.21-21.1,21.11-.89-.89L85.57,278.26a30,30,0,0,0,.62,43,27.82,27.82,0,0,0,2.74,2.28c11.92,9.62,29.54,8.42,40.55-2.59l10.14-10.12,21.2,21.21-10.61,10.6a60,60,0,0,1-84.84-84.85L76,247.22,97.18,226l63.64-63.64,20.33,20.33Z" transform="translate(-16.43 -23.7)" style="fill:url(#f)"/><path d="M234.06,299.48l-.77.77h-1.14a94.92,94.92,0,0,0-16.62,1.46l-.17,0-19-18.95.23,0a59.72,59.72,0,0,1,32,11.85,2,2,0,0,1,.24.19A59.38,59.38,0,0,1,234.06,299.48Z" transform="translate(-16.43 -23.7)" style="fill:url(#g)"/><path d="M264.73,96.3a60,60,0,0,1-9.45,12.25L223.7,140.13l0,0,.89.89-.11.1-21.21-21.21.11-.1,25-25a95.42,95.42,0,0,0,27.93-67.45V24.73A60,60,0,0,1,264.73,96.3Z" transform="translate(-16.43 -23.7)" style="fill:url(#h)"/><path d="M181.15,352.4l-10.73,10.72c-.87.87-1.75,1.72-2.65,2.54a89.15,89.15,0,0,1-37,20.54A90.2,90.2,0,0,1,53,371.64c-.29-.21-.58-.44-.86-.66a91.73,91.73,0,0,1-8.61-7.73C8.82,327.88,9.92,270.83,45,235.8l9.79-9.8.11-.11L76,204.79l21.21-21.21.11-.1,42.33-42.33,21.2,21.21L97.18,226,76,247.22l-10.6,10.6a60,60,0,1,0,84.84,84.85l10.61-10.6Z" transform="translate(-16.43 -23.7)" style="fill:url(#i)"/><path d="M223.68,309.86l.89.89-.11.1-9.1-9.11.17,0a94.92,94.92,0,0,1,16.62-1.46h1.14Z" transform="translate(-16.43 -23.7)" style="fill:url(#j)"/><path d="M256.28,24.47v2.92a95.42,95.42,0,0,1-27.93,67.45l-25,25-.11.1L182,98.72l.11-.1,74-74Z" transform="translate(-16.43 -23.7)" style="fill:url(#k)"/><path d="M256.28,425.27V409.06a57.86,57.86,0,0,0-16.94-40.9L162.15,291l-43.76-43.77L139.61,226l56.79,56.79,59.88,59.88q1.64,1.63,3.12,3.35a1,1,0,0,0,.08.11A60,60,0,0,1,256.28,425.27Z" transform="translate(-16.43 -23.7)" style="fill:url(#l)"/><path d="M383.56,300.25a60,60,0,0,1-84.86,0L182,183.57l-21.21-21.21-21.2-21.21-.89-.89L124.45,126c-10.85-10.86-29.21-10.18-40.91,1.52a31.09,31.09,0,0,0-9.24,21.76q0,.6,0,1.2A26.54,26.54,0,0,0,82,168.42L96.3,182.7l.88.88L76,204.79l-.88-.88L55.57,184.39c-18-18-13.64-51.63,9.8-75.06,13.69-13.7,30.88-20.9,46.4-20.9,11,0,21.17,3.63,28.65,11.11l20.4,20.4L182,141.15l21.22,21.21L324.19,283.3a57.83,57.83,0,0,0,40.91,16.95Z" transform="translate(-16.43 -23.7)" style="fill:url(#m)"/><path d="M256.28,409.06v16.21c-.33.35-.66.69-1,1l-74-74-.1.11-20.33-20.33-21.2-21.21-.89-.89L97.18,268.43l.11-.11,21.1-21.11L162.15,291l77.19,77.18A57.86,57.86,0,0,1,256.28,409.06Z" transform="translate(-16.43 -23.7)" style="fill:url(#n)"/><path d="M383.57,300.25H365.1a57.83,57.83,0,0,1-40.9-16.95L203.26,162.36,182,141.15l-21.21-21.21-20.4-20.4c-7.48-7.48-17.65-11.11-28.65-11.11-15.52,0-32.71,7.2-46.41,20.9-23.43,23.43-27.82,57-9.79,75.06L76,204.79,54.76,226,39.61,210.85C7,178.26,9.06,123.21,44.15,88.11S134.3,51,166.89,83.57L182,98.72l21.22,21.22,21.21,21.21Z" transform="translate(-16.43 -23.7)" style="fill:url(#o)"/></g><polygon points="122.39 201.31 122.69 201.61 122.57 201.73 80.14 159.3 122.57 116.87 164.7 159 122.39 201.31" style="mix-blend-mode:multiply;fill:url(#p)"/><path d="M181.43,352l-13.66,13.66a89.15,89.15,0,0,1-37,20.54L81,326l8.1-2.3c11.91,9.48,29.42,8.24,40.38-2.72l10.14-10.12-.89-.89.11-.11-.19-.19.35-.1Z" transform="translate(-16.43 -23.7)" style="mix-blend-mode:multiply;fill:url(#q)"/><path d="M97,184,82,168.21a26.58,26.58,0,0,1-7.69-17.74q0-.6,0-1.2a30.89,30.89,0,0,1,8.18-20.85l-1.58-5.17L19.15,174.81A78.58,78.58,0,0,0,21.78,183a89.84,89.84,0,0,0,11.33,20.23.39.39,0,0,0,.08.1,76.88,76.88,0,0,0,6.42,7.28l11.88,11.88L54,225l1,1,.25.23L97,184" transform="translate(-16.43 -23.7)" style="mix-blend-mode:multiply;fill:url(#r)"/><path d="M223.68,309.86l7.33,7.33h0l-42.43-42.43h0l7.29,7.29a59.78,59.78,0,0,1,38.19,17.43Z" transform="translate(-16.43 -23.7)" style="mix-blend-mode:multiply;fill:url(#s)"/><polygon points="164.69 243.61 122.57 285.73 80.14 243.3 122.57 200.87 122.7 201 122.39 201.31 164.69 243.61" style="mix-blend-mode:multiply;fill:url(#t)"/><path d="M264.73,96.3a60,60,0,0,1-9.45,12.25L223.7,140.13,181.57,98,224,55.57Z" transform="translate(-16.43 -23.7)" style="mix-blend-mode:multiply;fill:url(#u)"/></g></svg>